<?xml version="1.0" standalone="no"?>
<!DOCTYPE svg PUBLIC "-//W3C//DTD SVG 20010904//EN"
 "http://www.w3.org/TR/2001/REC-SVG-20010904/DTD/svg10.dtd">
<svg version="1.0" xmlns="http://www.w3.org/2000/svg"
 width="512.000000pt" height="512.000000pt" viewBox="0 0 512.000000 512.000000"
 preserveAspectRatio="xMidYMid meet">
<metadata>
Created by potrace 1.14, written by Peter Selinger 2001-2017
</metadata>
<g transform="translate(0.000000,512.000000) scale(0.100000,-0.100000)"
fill="#000000" stroke="none">
<path d="M2949 4441 c-30 -31 -36 -63 -19 -103 5 -13 55 -165 110 -338 56
-173 106 -328 112 -343 6 -16 7 -32 2 -36 -5 -5 -83 -62 -174 -127 -91 -65
-167 -121 -170 -124 -3 -3 -67 -50 -143 -104 -76 -54 -142 -107 -148 -118 -19
-36 -14 -78 15 -106 l26 -27 396 -1 c223 0 398 -5 403 -10 7 -9 16 -36 145
-434 106 -327 101 -315 142 -335 37 -17 67 -13 97 13 15 13 247 698 247 730 0
35 18 37 406 36 295 -1 386 1 412 12 59 24 68 106 15 147 -62 49 -589 430
-600 434 -7 3 -13 13 -13 23 0 9 34 122 76 251 42 129 96 292 119 363 23 71
40 139 37 152 -2 13 -15 35 -28 49 -34 36 -81 34 -136 -8 -24 -18 -104 -76
-178 -130 -226 -162 -384 -277 -401 -291 -13 -11 -56 17 -310 202 -162 118
-307 223 -324 233 -44 28 -81 24 -116 -10z m466 -465 c124 -91 239 -167 255
-171 34 -7 57 6 230 135 112 83 274 199 277 197 1 -2 -36 -120 -82 -262 -47
-143 -85 -274 -85 -291 0 -40 19 -57 274 -239 107 -77 195 -143 195 -146 1 -3
-125 -6 -279 -6 -208 0 -287 -3 -304 -13 -30 -15 -42 -44 -106 -245 -28 -88
-54 -167 -57 -175 -3 -8 -7 -19 -9 -25 -2 -5 -11 -37 -22 -70 l-19 -60 -89
274 c-76 232 -94 278 -117 295 -26 19 -42 20 -312 20 -157 0 -285 1 -285 2 0
1 103 78 230 169 187 137 231 173 240 200 9 29 2 58 -65 266 -42 129 -83 251
-91 272 -7 20 -12 37 -10 37 2 0 106 -74 231 -164z"/>
<path d="M3165 2883 c-11 -3 -38 -18 -60 -33 -58 -39 -319 -201 -390 -240
-376 -210 -578 -309 -865 -425 -216 -87 -503 -179 -629 -202 -14 -2 -44 -8
-66 -13 -22 -5 -62 -12 -90 -16 -27 -3 -59 -9 -70 -11 -11 -3 -116 -7 -233 -8
-233 -3 -240 -5 -260 -64 -14 -40 5 -73 101 -176 47 -49 83 -93 81 -97 -4 -6
-274 -201 -337 -244 -92 -61 -114 -105 -85 -169 14 -32 39 -38 382 -99 38 -7
38 -7 17 -47 -156 -296 -160 -306 -118 -354 12 -14 35 -27 51 -29 31 -3 390
113 581 189 150 59 445 201 590 284 182 104 508 326 581 396 6 5 31 26 55 46
166 139 349 328 482 501 169 218 378 601 393 717 4 34 -19 75 -51 89 -27 13
-28 13 -60 5z m-194 -351 c-367 -685 -1151 -1289 -2073 -1597 -54 -18 -98 -30
-98 -28 0 3 25 54 56 114 48 93 55 114 50 144 -11 56 -13 57 -303 112 l-42 8
167 121 c92 66 173 131 179 145 19 39 1 82 -56 142 -27 28 -49 52 -48 53 1 1
43 4 92 8 50 3 99 8 111 10 12 2 45 7 75 11 30 4 56 8 59 10 3 2 26 6 50 10
172 25 547 144 825 262 217 92 603 285 750 374 17 11 39 23 50 28 11 5 49 28
85 50 73 45 85 49 71 23z"/>
</g>
</svg>
